Leaves of Grass (2009) 1080P 2xAC3+2xDTS Ger-Eng-NLsubs-DMT

Verenigde Staten
Komedie / Thriller
105 minuten

geregisseerd door Tim Blake Nelson
met Edward Norton, Tim Blake Nelson en Keri Russell

Een tweederangsdief raakt ongewild betrokken bij een conflict 
in het drugsmilieu. Om uit de problemen te raken, zal hij het 
samen met de hulp van z'n tweelingbroer, een filosofieprofessor 
aan de universiteit, moeten opnemen tegen een ongrijpbare drugsbaron.

PLOT

An Ivy League professor is lured back to his Oklahoma hometown,
where his twin brother, a small-time pot grower,
has concocted a scheme to take down a local drug lord. 
 
http://www.youtube.com/watch?v=1a5QepEU390

MM:    http://www.moviemeter.nl/film/52751

IMDB:    http://www.imdb.com/title/tt1151359/

INFO

Source......: 1080P 
FRAME RATE..: 23.976Fps 
VIDEO.......: X264
AUDIO 1.....: German DTS
Audio 2.....: Eng DTS
Audio 3.....: German AC3
Audio 4.....: Eng AC3
RESOLUTION..: 1920x1040
GENERE......: Comedy | Crime | Drama | Thriller  
LANGUAGE....: German & English
SUBTITLES...: German & English & Dutch
Muxer.......: NLUPPER

Enjoy

General
Complete name                    : Leaves.of.Grass.2009.1080P.AC3.DTS.Ger.Eng.NLsubs-DMT.mkv
Format                           : Matroska
File size                        : 12.6 GiB
Duration                         : 1h 44mn
Overall bit rate                 : 17.2 Mbps
Encoded date                     : UTC 2010-10-30 09:05:12
Writing application              : mkvmerge v4.3.0 ('Escape from the Island') built on Sep  5 2010 10:30:51
Writing library                  : libebml v1.0.0 + libmatroska v1.0.0

Video
ID                               : 1
Format                           : AVC
Format/Info                      : Advanced Video Codec
Format profile                   : High@L4.1
Format settings, CABAC           : Yes
Format settings, ReFrames        : 4 frames
Muxing mode                      : Container profile=Unknown@4.1
Codec ID                         : V_MPEG4/ISO/AVC
Duration                         : 1h 44mn
Bit rate                         : 12.9 Mbps
Width                            : 1 920 pixels
Height                           : 1 040 pixels
Display aspect ratio             : 16:9
Frame rate                       : 23.976 fps
Color space                      : YUV
Chroma subsampling               : 4:2:0
Bit depth                        : 8 bits
Scan type                        : Progressive
Bits/(Pixel*Frame)               : 0.269
Stream size                      : 9.16 GiB (73%)
Writing library                  : x264 core 107 r1745 4785e8e
Encoding settings                : cabac=1 / ref=4 / deblock=1:-3:-3 / analyse=0x3:0x113 / 
me=umh / subme=10 / psy=1 / psy_rd=0.80:0.10 / mixed_ref=1 / me_range=48 / chroma_me=1 / 
trellis=2 / 8x8dct=1 / cqm=0 / deadzone=21,11 / fast_pskip=0 / chroma_qp_offset=-3 / 
threads=12 / sliced_threads=0 / nr=0 / decimate=1 / interlaced=0 / constrained_intra=0 / 
bframes=6 / b_pyramid=2 / b_adapt=2 / b_bias=0 / direct=3 / weightb=1 / open_gop=0 / 
weightp=2 / keyint=250 / keyint_min=23 / scenecut=40 / intra_refresh=0 / rc=2pass / 
mbtree=0 / bitrate=12900 / ratetol=1.0 / qcomp=0.60 / qpmin=10 / qpmax=51 / qpstep=4 / 
cplxblur=20.0 / qblur=0.5 / ip_ratio=1.40 / pb_ratio=1.30 / aq=1:0.60
Language                         : English

Audio #1
ID                               : 2
Format                           : DTS
Format/Info                      : Digital Theater Systems
Muxing mode                      : Header stripping
Codec ID                         : A_DTS
Duration                         : 1h 44mn
Bit rate mode                    : Constant
Bit rate                         : 1 510 Kbps
Channel(s)                       : 6 channels
Channel positions                : Front: L C R, Side: L R, LFE
Sampling rate                    : 48.0 KHz
Bit depth                        : 24 bits
Stream size                      : 1.10 GiB (9%)
Title                            : DTS
Language                         : German

Audio #2
ID                               : 3
Format                           : DTS
Format/Info                      : Digital Theater Systems
Muxing mode                      : Header stripping
Codec ID                         : A_DTS
Duration                         : 1h 44mn
Bit rate mode                    : Constant
Bit rate                         : 1 510 Kbps
Channel(s)                       : 6 channels
Channel positions                : Front: L C R, Side: L R, LFE
Sampling rate                    : 48.0 KHz
Bit depth                        : 24 bits
Stream size                      : 1.10 GiB (9%)
Title                            : DTS
Language                         : English

Audio #3
ID                               : 5
Format                           : AC-3
Format/Info                      : Audio Coding 3
Mode extension                   : CM (complete main)
Muxing mode                      : Header stripping
Codec ID                         : A_AC3
Duration                         : 1h 44mn
Bit rate mode                    : Constant
Bit rate                         : 640 Kbps
Channel(s)                       : 6 channels
Channel positions                : Front: L C R, Side: L R, LFE
Sampling rate                    : 48.0 KHz
Bit depth                        : 16 bits
Stream size                      : 478 MiB (4%)
Title                            : AC3 Duits 640
Language                         : German

Audio #4
ID                               : 6
Format                           : AC-3
Format/Info                      : Audio Coding 3
Mode extension                   : CM (complete main)
Muxing mode                      : Header stripping
Codec ID                         : A_AC3
Duration                         : 1h 44mn
Bit rate mode                    : Constant
Bit rate                         : 640 Kbps
Channel(s)                       : 6 channels
Channel positions                : Front: L C R, Side: L R, LFE
Sampling rate                    : 48.0 KHz
Bit depth                        : 16 bits
Stream size                      : 478 MiB (4%)
Title                            : AC3 ENG 640
Language                         : English

Text #1
ID                               : 4
Format                           : UTF-8
Codec ID                         : S_TEXT/UTF8
Codec ID/Info                    : UTF-8 Plain Text
Title                            : DUITS
Language                         : German

Text #2
ID                               : 7
Format                           : UTF-8
Codec ID                         : S_TEXT/UTF8
Codec ID/Info                    : UTF-8 Plain Text
Title                            : Nederlands
Language                         : Dutch

Text #3
ID                               : 8
Format                           : UTF-8
Codec ID                         : S_TEXT/UTF8
Codec ID/Info                    : UTF-8 Plain Text
Title                            : Eng
Language                         : English